<?xml version="1.0" encoding="UTF-8"?> <!-- Generator: Adobe Illustrator 25.0.1, SVG Export Plug-In . SVG Version: 6.00 Build 0) --> <svg xmlns="http://www.w3.org/2000/svg" xmlns:xlink="http://www.w3.org/1999/xlink" version="1.1" x="0px" y="0px" viewBox="0 0 118.7 118.7" style="enable-background:new 0 0 118.7 118.7;" xml:space="preserve"> <style type="text/css"> .st0{display:none;} .st1{display:inline;fill:#EF3F4A;} .st2{display:inline;fill:#FFFFFF;} .st3{display:inline;fill:#F47830;} .st4{fill:#F8C052;} .st5{fill:#FFFFFF;} </style> <g id="Layer_1" class="st0"> <circle class="st1" cx="59.4" cy="59.4" r="54.7"></circle> <path class="st2" d="M91.4,58.3c-0.3-3.1-2.7-5.5-5.8-5.9c-0.6-0.1-1.2-0.1-1.9,0c-1.2-1.2-2.7-2-4.3-2.3c0.2-1.1,0.3-2.2,0.3-3.3 c0-9.5-6.1-17.9-15.2-20.8c-0.7-0.2-1.5,0.3-1.7,1c-0.2,0.7,0.2,1.3,0.8,1.6c4.2,1.3,7.8,4.1,10.2,7.8c-1.1,0.5-2.3,0.3-3.2-0.6 c-2.2-2.2-5.7-2.2-7.9,0c0,0,0,0,0,0c-1.1,1.1-2.9,1.1-4,0c-2.2-2.2-5.7-2.2-7.9,0c0,0,0,0,0,0c-1.1,1.1-2.9,1.1-4,0 c-0.9-0.9-2.1-1.5-3.4-1.6c2.4-2.7,5.5-4.7,9-5.7c0.7-0.2,1.1-1,0.9-1.7c-0.2-0.7-1-1.1-1.7-0.9l0,0c-4.4,1.3-8.3,3.9-11.1,7.6 c-5.9,7.5-6.2,18-0.8,25.8c-1.9,0.2-3.6,1.1-5,2.4c-0.6-0.1-1.2-0.1-1.8,0c-3.1,0.4-5.5,2.8-5.8,5.9c-0.1,1.2,0.1,2.5,0.6,3.6 c0.2,0.5,0.7,0.8,1.2,0.8h18.6v2.7c-2.3,0.1-4,2.1-3.8,4.3c0.1,1.6,1.2,3,2.7,3.6v5.7c0,3.6,2.9,6.5,6.5,6.5h9.3 c3.6,0,6.5-3,6.5-6.6v-5.7c2.1-0.7,3.3-3.1,2.5-5.2c-0.5-1.5-2-2.6-3.6-2.7v-3.9c0.9-3,2.6-5.7,4.9-7.9l0.1-0.1h16.7 c0.5,0,1-0.3,1.2-0.8C91.3,60.8,91.5,59.5,91.4,58.3L91.4,58.3z M65.6,69.1H54.4c0.1-0.5,0.1-1.1,0-1.6c-0.3-3.1-2.7-5.5-5.7-5.9 c0.2-0.2,0.5-0.4,0.7-0.6c1.2-1.2,3.1-1.2,4.3,0c2.3,2.3,5.9,2.3,8.2,0c0,0,0,0,0,0c1.2-1.2,3.1-1.2,4.3,0c0.8,0.8,1.9,1.4,3,1.6 C67.6,64.5,66.4,66.7,65.6,69.1L65.6,69.1z M72.6,59.1c-1.2,1.2-3.1,1.2-4.3,0c-2.3-2.3-5.9-2.3-8.2,0c-1.2,1.2-3.1,1.2-4.3,0 c-2.3-2.3-5.9-2.3-8.2,0c-1.2,1.2-3.1,1.2-4.3,0c-2.4-2.8-3.9-6.3-4.3-10c1.1-0.8,2.6-0.7,3.5,0.3c2.1,2.1,5.6,2.1,7.8,0 c0,0,0,0,0,0c1.1-1.1,2.8-1.1,3.9,0c2.1,2.1,5.6,2.1,7.8,0c1.1-1.1,2.8-1.1,3.9,0c2.1,2.1,5.6,2.1,7.8,0c0.9-0.9,2.4-1.1,3.4-0.4 C76.5,52.7,75,56.2,72.6,59.1L72.6,59.1z M45,37.6c2.2,2.2,5.7,2.2,7.9,0c1.1-1.1,2.9-1.1,4,0c2.2,2.2,5.7,2.2,7.9,0 c0.5-0.5,1.2-0.8,2-0.8c0.8,0,1.5,0.3,2,0.8c1.7,1.7,4.3,2.1,6.4,1c1.1,2.3,1.7,4.8,1.8,7.3c-1.9-0.6-4-0.1-5.5,1.4 c-1.1,1.1-2.8,1.1-3.9,0c0,0,0,0,0,0c-2.1-2.1-5.6-2.1-7.8,0c-1.1,1.1-2.8,1.1-3.9,0c0,0,0,0,0,0c-2.1-2.1-5.6-2.1-7.8,0 c-1.1,1.1-2.8,1.1-3.9,0c0,0,0,0,0,0c-1.5-1.5-3.6-2-5.6-1.3c0.1-2.9,0.9-5.8,2.3-8.4C42.1,36.5,43.9,36.6,45,37.6L45,37.6z M30,67.7c0.2-1.8,1.6-3.3,3.4-3.5c0.5-0.1,1.1,0,1.6,0.1c0.5,0.1,1.1,0,1.4-0.5c2-2.4,5.6-2.8,8-0.8c0.3,0.2,0.6,0.5,0.8,0.8 c0.3,0.4,0.9,0.6,1.4,0.5c0.5-0.2,1.1-0.2,1.6-0.1c2.2,0.3,3.7,2.4,3.4,4.5c0,0.1,0,0.2-0.1,0.3H30.1C30,68.6,29.9,68.2,30,67.7z M65.2,71.8v2.8H50.5v-2.7L65.2,71.8z M66.3,88.2c0,2.1-1.7,3.8-3.8,3.8h0h-9.3c-2.1,0-3.8-1.7-3.8-3.8l0,0v-5.5h16.9V88.2z M69,78.6c0,0.8-0.6,1.4-1.4,1.4H48c-0.8-0.1-1.3-0.7-1.2-1.5c0.1-0.7,0.6-1.2,1.2-1.2h19.7C68.4,77.3,69,77.9,69,78.6z M88.6,59.9 H75.3c1.6-2.2,2.8-4.6,3.6-7.2c1.3,0.2,2.5,1,3.4,2c0.3,0.4,0.9,0.6,1.4,0.4c0.5-0.1,1.1-0.2,1.6-0.1c2.2,0.3,3.7,2.3,3.4,4.4 C88.7,59.6,88.7,59.8,88.6,59.9L88.6,59.9z"></path> </g> <g id="Layer_2" class="st0"> <circle class="st3" cx="59.4" cy="59.3" r="54.7"></circle> <path class="st2" d="M33.3,50h-2.7V39.3c0-2.2,1.8-4,4-4h32V38h-32c-0.7,0-1.3,0.6-1.3,1.3l0,0V50z"></path> <path class="st2" d="M48,78H34.7c-2.2,0-4-1.8-4-4V60.6h2.7V74c0,0.7,0.6,1.3,1.3,1.3l0,0H48L48,78z"></path> <path class="st2" d="M59,88.6c-0.4,0-0.7-0.1-0.9-0.4L25.7,55.9c-0.5-0.5-0.5-1.4,0-1.9l7.6-7.6c0.5-0.5,1.4-0.5,1.9,0l32.4,32.4 c0.5,0.5,0.5,1.4,0,1.9L60,88.2C59.7,88.5,59.4,88.6,59,88.6z M28.6,54.9L59,85.4l5.7-5.7L34.3,49.2L28.6,54.9z"></path> <path class="st2" d="M84,85.9h-4c-0.7,0-1.3-0.6-1.3-1.3V78H64v-2.7h20c2.9,0,5.3,2.4,5.3,5.3S86.9,85.9,84,85.9L84,85.9z M81.3,83.3H84c1.5-0.1,2.6-1.4,2.5-2.8C86.4,79.1,85.3,78,84,78h-2.7V83.3z"></path> <path class="st2" d="M89.3,80.6h-2.7v-40c0-1.5-1.2-2.7-2.7-2.7l0,0h-6.7v-2.6H84c2.9,0,5.3,2.4,5.3,5.3L89.3,80.6z"></path> <rect x="45.8" y="64" transform="matrix(0.7071 -0.7071 0.7071 0.7071 -31.9243 53.5316)" class="st2" width="5.6" height="2.7"></rect> <rect x="40.5" y="58.6" transform="matrix(0.7071 -0.7071 0.7071 0.7071 -29.7089 48.2061)" class="st2" width="5.6" height="2.7"></rect> <rect x="51.2" y="69.3" transform="matrix(0.7071 -0.7071 0.7071 0.7071 -34.1257 58.8571)" class="st2" width="5.6" height="2.7"></rect> <rect x="56.5" y="74.6" transform="matrix(0.7071 -0.7071 0.7071 0.7071 -36.3412 64.1884)" class="st2" width="5.6" height="2.7"></rect> <rect x="35.2" y="53.3" transform="matrix(0.7071 -0.7071 0.7071 0.7071 -27.5104 42.8677)" class="st2" width="5.6" height="2.7"></rect> <path class="st2" d="M61.6,53.9c-0.4,0-0.7-0.1-0.9-0.4L55.1,48c-0.5-0.5-0.5-1.4,0-1.9l20.3-20.3c1.6-1.5,4-1.5,5.6,0l1.8,1.8 c1.5,1.5,1.5,4,0,5.6c0,0,0,0,0,0l0,0L62.5,53.5C62.3,53.8,62,53.9,61.6,53.9z M58,47l3.6,3.6l19.3-19.3c0.5-0.5,0.5-1.3,0-1.8 c0,0,0,0,0,0l0,0l-1.8-1.8c-0.5-0.5-1.3-0.5-1.8,0L58,47z"></path> <path class="st2" d="M53.3,56.6c-0.7,0-1.3-0.6-1.3-1.3c0-0.1,0-0.3,0.1-0.4l2.8-8.3l2.5,0.8l-1.9,5.8l5.8-1.9l0.9,2.5l-8.3,2.7 C53.6,56.6,53.5,56.6,53.3,56.6z"></path> <rect x="74.1" y="29.3" transform="matrix(0.7071 -0.7071 0.7071 0.7071 -1.3849 63.0597)" class="st2" width="2.7" height="7.8"></rect> <rect x="53.3" y="54" class="st2" width="20" height="2.7"></rect> <rect x="76" y="54" class="st2" width="2.7" height="2.7"></rect> <rect x="81.3" y="54" class="st2" width="2.7" height="2.7"></rect> </g> <g id="Layer_3"> <circle class="st4" cx="59.4" cy="59.4" r="54.7"></circle> <path class="st5" d="M82.6,71.1c0.3-1.8,0.3-3.6,0-5.4l4.9-11.8l0,0c0.8-2.2,1.9-4.2,3.4-6c0.4-0.4,0.5-0.9,0.4-1.5l-2-8.7 c0-0.1-0.1-0.2-0.1-0.3l0,0l-0.1-0.1L89,37.2l-0.1-0.1c-0.1,0-0.1-0.1-0.2-0.1c-0.1,0-0.2-0.1-0.2-0.1h-0.1c-0.2,0-0.4,0-0.6,0.1 h-0.1l0,0l-7.5,4.7c-0.5,0.3-0.7,0.8-0.8,1.3c-0.2,2.3-0.8,4.6-1.8,6.7l0,0l-2.4,5.9c-1.2-0.6-2.5-1.1-3.8-1.4 c0.5-3.5,0.7-7,0.5-10.5c2-2.4,2.9-5.5,2.6-8.6C74,29,68.3,24.6,68.1,24.4c-0.5-0.4-1.1-0.3-1.5,0.2c-0.2,0.3-0.3,0.6-0.2,0.9 c0.5,2.1,0.1,4.2-4,8.7C60.6,36,60,38.6,60.9,41c0.4,0.9,0.9,1.7,1.5,2.5c-0.3,1.6-0.5,3.2-0.6,4.7c-0.2,2.5-0.3,5-0.2,7.6 c-1,0.5-1.8,1.1-2.7,1.8l-5.2-22.1c0,0,0,0,0-0.1c0-0.1,0-0.1-0.1-0.2l-5.3-9.8c-0.6-1.2-2.1-1.7-3.3-1c-0.8,0.4-1.3,1.2-1.3,2.1 l-0.4,11.1c0,0.1,0,0.2,0,0.2v0.1l5.3,22.5c-0.8,0-1.7,0.2-2.5,0.4l-5.8-14c-0.5-1.1-1.7-1.6-2.8-1.1l-8.9,3.7 c-1.1,0.4-1.6,1.7-1.2,2.8c0,0,0,0,0,0l7.9,19c-4.7,0.5-8.1,4.7-7.6,9.4c0.4,4.2,3.8,7.4,8,7.6h47c4.7-0.1,8.5-3.9,8.4-8.7 C91.2,74.8,87.4,71,82.6,71.1L82.6,71.1z M81.5,43.5l4.5-2.8l-1.6,3.8c-0.2,0.6,0,1.2,0.6,1.4c0.6,0.2,1.2,0,1.4-0.6l1.6-3.8 l1.2,5.1c-1.3,1.5-2.3,3.3-3.1,5.1c-2.2,1-4.8,0.1-5.9-2.1c-0.1-0.1-0.1-0.2-0.1-0.4C80.8,47.4,81.3,45.5,81.5,43.5z M79.1,51.8 c0.7,0.9,1.6,1.5,2.7,1.9c0.8,0.4,1.7,0.5,2.6,0.6c0.2,0,0.4,0,0.6,0l-3.4,8.2c-1-2.2-2.6-4.2-4.6-5.7L79.1,51.8z M64.5,44.2 l5.4,0.3c0,1,0,2,0,3.1c-1.8,0.1-3.6,0-5.4-0.2l-0.4-0.1C64.2,46.3,64.3,45.3,64.5,44.2L64.5,44.2z M63.9,35.6 c2.8-3.1,4.3-5.5,4.6-7.8c2,2.1,3.4,4.8,3.9,7.7c0.2,2.5-0.5,5-2.2,7L64,42.1c-1.8-1.7-1.9-4.5-0.2-6.3 C63.9,35.8,63.9,35.7,63.9,35.6L63.9,35.6z M63.9,49.4h0.3c1.4,0.2,2.8,0.3,4.1,0.3c0.4,0,0.9,0,1.4-0.1c-0.1,1.4-0.3,2.8-0.5,4.3 c-0.3,0-0.5,0-0.8,0c-1.6,0-3.2,0.3-4.7,0.8C63.7,53,63.7,51.2,63.9,49.4z M55.6,61.9l-3.1-13c-0.1-0.6-0.7-0.9-1.3-0.8 c-0.6,0.1-0.9,0.7-0.8,1.3l2.7,11.7c-0.8-0.3-1.5-0.5-2.3-0.6l-4.7-20c0.7,0.3,1.4,0.5,2.1,0.4h0.2l0.8,3.2c0.1,0.6,0.6,1,1.2,0.9 c0.6-0.1,1-0.6,0.9-1.2c0,0,0-0.1,0-0.1l-0.8-3.2c0.7-0.3,1.4-0.8,1.9-1.4l4.8,20.4C56.6,60.3,56.1,61.1,55.6,61.9L55.6,61.9z M49.1,38.8c-1.4,0.3-2.8-0.3-3.6-1.4l0.1-3.8c0.4,0.1,0.7,0.1,1.1,0.1c0.4,0,0.7,0,1.1-0.1c0.7-0.2,1.4-0.5,2-1l1.7,3.3 C51.4,37.3,50.4,38.4,49.1,38.8L49.1,38.8z M46.2,26.3c0.1,0,0.3,0,0.4,0.2l2.3,4.2c-0.4,0.4-0.9,0.7-1.4,0.8 c-0.5,0.1-1.1,0.1-1.6-0.1l0.2-4.8C45.9,26.5,46,26.3,46.2,26.3L46.2,26.3z M38.4,47.6l0.8,2l-4,1.6c-0.5,0.2-0.8,0.8-0.6,1.4 c0.2,0.4,0.6,0.7,1,0.7c0.1,0,0.3,0,0.4-0.1l4-1.6l0.8,2l-2,0.8c-0.5,0.2-0.7,0.7-0.6,1.2c0.1,0.5,0.5,0.8,1,0.9 c0.1,0,0.3,0,0.4-0.1l2-0.8l0.8,2l-3.9,1.6c-0.5,0.2-0.7,0.7-0.6,1.2c0.1,0.5,0.5,0.9,1,0.8c0.1,0,0.3,0,0.4-0.1l4-1.6l0.9,2.1 c-3.5,1.6-6,4.7-6.9,8.4l-7.7-18.7L38.4,47.6z M82.9,86h-47c-3.5,0-6.4-2.9-6.4-6.4c0-3.5,2.9-6.4,6.4-6.4c0.6,0,1.2,0.1,1.8,0.3 c0.6,0.2,1.2-0.1,1.3-0.7c0-0.1,0-0.2,0-0.3c0.1-5.6,4.7-10,10.3-9.9c2.1,0,4.2,0.8,5.9,2c0.5,0.3,1.2,0.2,1.5-0.3 c0.1-0.1,0.1-0.1,0.1-0.2c2.3-6.4,9.4-9.6,15.7-7.3c6.2,2.3,9.4,9,7.5,15.2c-0.1,0.4,0,0.7,0.2,1c0.2,0.3,0.6,0.4,1,0.3 c0.5-0.1,0.9-0.2,1.4-0.1c3.5,0,6.4,2.9,6.4,6.4C89.2,83.1,86.4,86,82.9,86L82.9,86z"></path> <path class="st5" d="M68.6,40.9c0.3,0,0.6-0.2,0.9-0.4c1.4-1.8,1.9-4.1,1.4-6.3c-0.1-0.6-0.7-1-1.2-0.9c-0.6,0.1-1,0.7-0.9,1.2 c0,0.1,0,0.1,0,0.2c0.3,1.6-0.1,3.2-1.1,4.4c-0.4,0.5-0.3,1.1,0.2,1.5C68.2,40.8,68.4,40.9,68.6,40.9L68.6,40.9z"></path> <path class="st5" d="M67.2,73.2c-0.8,0-1.6,0.2-2.3,0.5c-2.1-2.9-6.1-3.5-8.9-1.4c-2.4,1.8-3.3,5-2.1,7.7c0.2,0.4,0.6,0.7,1,0.6 c0.1,0,0.3,0,0.4-0.1c0.3-0.1,0.5-0.3,0.6-0.6c0.1-0.3,0.1-0.6,0-0.8c-0.2-0.5-0.3-1.1-0.4-1.7c0-2.4,1.9-4.3,4.3-4.3 c1.7,0,3.2,0.9,3.9,2.4l0.1,0.1c0,0,0,0.1,0.1,0.1c0,0,0,0,0.1,0.1c0.1,0,0.1,0.1,0.2,0.1c0.1,0,0.1,0.1,0.2,0.1 c0.1,0.1,0.3,0.1,0.4,0.1c0.1,0,0.3,0,0.4-0.1h0.1l0.1-0.1l0.1-0.1c0.6-0.5,1.3-0.7,2-0.7c1.2,0,2.4,0.7,2.9,1.9 c0.3,0.5,0.9,0.7,1.5,0.4c0.4-0.3,0.6-0.8,0.5-1.3C71.3,74.5,69.4,73.2,67.2,73.2L67.2,73.2z"></path> <path class="st5" d="M46.2,65.8c-0.2,0.1-3.9,1.4-3.9,5.3c-0.1,0.6,0.4,1.1,1,1.2c0.6,0.1,1.1-0.4,1.2-1c0-0.1,0-0.1,0-0.2 c0.1-1.5,1.1-2.8,2.5-3.2c0.6-0.2,0.9-0.8,0.7-1.4c0,0,0,0,0,0C47.4,65.9,46.8,65.6,46.2,65.8C46.2,65.8,46.2,65.8,46.2,65.8 L46.2,65.8z"></path> <path class="st5" d="M61.3,64.7c0.1,0,0.2,0,0.3,0c0.5,0,0.9-0.3,1-0.8c0.5-2,2.3-3.4,4.3-3.5c0.6-0.1,1-0.6,1-1.2 c0-0.5-0.5-0.9-1-1c-3,0-5.7,2.1-6.4,5.1C60.3,63.9,60.7,64.5,61.3,64.7L61.3,64.7z"></path> </g> </svg> 